<?xml version="1.0" encoding="UTF-8" standalone="no"?>
<!-- Created with Inkscape (http://www.inkscape.org/) -->

<svg
   width="43.118523mm"
   height="42.866188mm"
   viewBox="0 0 43.118523 42.866188"
   version="1.1"
   id="svg1"
   xml:space="preserve"
   xmlns="http://www.w3.org/2000/svg"
   xmlns:svg="http://www.w3.org/2000/svg"><defs
     id="defs1" /><g
     id="layer1"
     transform="translate(-86.969493,-121.44405)"><g
       id="g1"><path
         style="fill:#9cdfef"
         d="m 89.166631,160.11566 c -0.691213,-0.69121 -0.793853,-0.98102 -0.781012,-2.20521 0.0081,-0.77518 0.21649,-1.89262 0.46302,-2.4832 l 0.448238,-1.07379 0.904074,1.20608 c 0.49724,0.66335 0.713903,1.04956 0.481472,0.85827 -0.358164,-0.29478 -0.465757,-0.26718 -0.705636,0.18104 -0.814004,1.52098 0.02954,2.9449 1.744597,2.9449 1.191605,0 1.330011,-0.43351 0.45035,-1.41057 -0.581687,-0.64609 -0.509897,-0.61081 0.312982,0.15379 0.587293,0.54571 1.319898,0.99219 1.62801,0.99219 0.773203,0 5.898144,-2.59829 6.084904,-3.08498 0.0834,-0.21733 0.44614,-0.50711 0.8061,-0.64397 2.59633,-0.98712 16.89182,-12.18134 17.94023,-14.04826 0.15308,-0.2726 0.36456,-0.40941 0.46994,-0.30403 0.39822,0.39822 5.131,-4.74596 7.30013,-7.93469 0.58604,-0.86152 0.82906,-1.48604 0.74644,-1.91823 -0.0773,-0.40457 7.5e-4,-0.64084 0.2118,-0.64084 0.34599,0 0.91523,-1.32089 0.91523,-2.12375 0,-0.25151 -0.19092,-0.61574 -0.42427,-0.8094 -0.46543,-0.38627 -2.47915,-0.40799 -2.72751,-0.0294 -0.0855,0.13037 -0.54673,-0.14898 -1.02488,-0.62078 l -0.86938,-0.85782 2.06,-0.18091 c 1.22281,-0.10738 2.34485,-0.0719 2.7609,0.0872 1.65054,0.63139 1.99723,2.63276 0.87404,5.04566 -0.36786,0.79027 -0.61685,1.57234 -0.5533,1.73793 0.0635,0.16559 -0.0942,0.29292 -0.35045,0.28294 -0.28491,-0.0111 -1.18471,0.90718 -2.31558,2.36311 -1.01728,1.30969 -3.11728,3.71745 -4.66667,5.35057 -2.1433,2.25913 -2.82151,3.14507 -2.83566,3.70416 -0.0135,0.53163 -0.0683,0.61108 -0.19844,0.2873 -0.14651,-0.36462 -0.79276,0.0688 -3.48713,2.33874 -1.81901,1.53247 -4.53682,3.68573 -6.03957,4.78503 -1.6746,1.22502 -2.61368,2.07202 -2.42591,2.18807 0.16878,0.10431 -0.20524,0.27115 -0.83285,0.37151 -0.67369,0.10772 -1.95287,0.70354 -3.13034,1.45806 -1.09512,0.70174 -3.208031,1.88602 -4.695363,2.63173 -1.702021,0.85336 -2.657583,1.47897 -2.578348,1.68805 0.09449,0.24934 -0.533887,0.35429 -2.519235,0.42074 -2.63717,0.0883 -2.647521,0.0862 -3.440923,-0.70725 z"
         id="path2" /><path
         style="fill:#00472a"
         d="m 103.1875,163.76472 c -1.86125,-0.48059 -5.57734,-2.12713 -6.734813,-2.98408 -0.484828,-0.35895 -0.378502,-0.45254 1.703312,-1.49926 1.22123,-0.61402 3.180331,-1.71349 4.353561,-2.44327 1.7463,-1.08625 2.63697,-1.44029 4.91127,-1.95225 6.34699,-1.42875 10.42648,-4.81992 11.65008,-9.6844 0.25909,-1.03 0.74856,-1.69358 2.82982,-3.83646 2.35537,-2.42509 5.28996,-5.86967 5.84384,-6.8594 0.13425,-0.23988 0.37559,-0.35487 0.53633,-0.25553 0.46145,0.28519 1.32416,3.39303 1.64315,5.91927 1.34692,10.66707 -5.74049,20.95682 -16.26168,23.60928 -2.83336,0.71431 -7.67955,0.70788 -10.47487,-0.0139 z m -11.245349,-7.06525 c -1.8079,-2.15851 -3.679985,-5.7603 -4.417907,-8.49981 -0.407053,-1.51117 -0.546177,-2.84725 -0.554449,-5.32466 -0.01361,-4.07702 0.427045,-5.99536 2.244096,-9.76933 1.177453,-2.44554 1.616911,-3.04827 3.880408,-5.32213 2.854008,-2.86707 5.113176,-4.29256 8.637991,-5.45038 3.05892,-1.00478 8.5154,-1.18759 11.82933,-0.39633 4.99986,1.19382 9.06351,3.77 12.02185,7.62134 l 1.45692,1.89671 -0.4727,0.74912 c -1.32209,2.09518 -5.8353,7.46795 -6.48196,7.71648 -0.12621,0.0485 -0.22996,-1.02305 -0.23054,-2.38125 -0.002,-3.83345 -1.07495,-9.58091 -1.88453,-10.09158 -0.55719,-0.35146 -6.30091,1.57964 -9.82888,3.30458 -6.41841,3.13818 -9.468075,6.20009 -10.634113,10.67681 -0.742648,2.85122 -0.351652,6.2621 0.998383,8.70945 0.95669,1.73429 1.273646,1.5598 2.78414,-1.53274 1.33292,-2.72899 3.53776,-5.7851 5.47068,-7.58284 0.85391,-0.7942 0.79946,-0.68119 -0.38247,0.79375 -2.54477,3.17566 -4.18015,6.32471 -5.83969,11.24479 l -0.981687,2.91042 -2.447256,1.25677 c -1.345991,0.69123 -2.722772,1.25677 -3.059514,1.25677 -0.431747,0 -1.053274,-0.52654 -2.108102,-1.78594 z"
         id="path1" /></g></g></svg>
